HIERARCHY
ROOT Hips
{
  OFFSET 90.7885 88.945 -76.2838
  CHANNELS 6 Xposition Yposition Zposition Zrotation Xrotation Yrotation
  JOINT LeftUpLeg
  {
    OFFSET 8.64259 1.95398 -2.38835
    CHANNELS 3 Zrotation Xrotation Yrotation
    JOINT LeftLeg
    {
      OFFSET 43.7702 0 0
      CHANNELS 3 Zrotation Xrotation Yrotation
      JOINT LeftFoot
      {
        OFFSET 40.6238 0 0
        CHANNELS 3 Zrotation Xrotation Yrotation
        JOINT LeftToeBase
        {
          OFFSET 12.7242 0 0
          CHANNELS 3 Zrotation Xrotation Yrotation
          End Site
          {
            OFFSET 0 0 0
          }
        }
      }
    }
  }
  JOINT RightUpLeg
  {
    OFFSET -8.2249 1.95398 -2.59336
    CHANNELS 3 Zrotation Xrotation Yrotation
    JOINT RightLeg
    {
      OFFSET 43.5653 0 0
      CHANNELS 3 Zrotation Xrotation Yrotation
      JOINT RightFoot
      {
        OFFSET 40.6238 0 0
        CHANNELS 3 Zrotation Xrotation Yrotation
        JOINT RightToeBase
        {
          OFFSET 12.7242 0 0
          CHANNELS 3 Zrotation Xrotation Yrotation
          End Site
          {
            OFFSET 0 0 0
          }
        }
      }
    }
  }
  JOINT Spine
  {
    OFFSET 0.165834 0.87714 6.61349
    CHANNELS 3 Zrotation Xrotation Yrotation
    JOINT Spine1
    {
      OFFSET 7.38963 1.71661e-005 0
      CHANNELS 3 Zrotation Xrotation Yrotation
      JOINT Spine2
      {
        OFFSET 11.9445 1.14441e-005 0
        CHANNELS 3 Zrotation Xrotation Yrotation
        JOINT Spine3
        {
          OFFSET 14.7254 4.19617e-005 0
          CHANNELS 3 Zrotation Xrotation Yrotation
          JOINT Spine4
          {
            OFFSET 10.9679 0 0
            CHANNELS 3 Zrotation Xrotation Yrotation
            JOINT RightShoulder
            {
              OFFSET 2.46616 -1.6653 3.69651
              CHANNELS 3 Zrotation Xrotation Yrotation
              JOINT RightArm
              {
                OFFSET 13.0012 0 0
                CHANNELS 3 Zrotation Xrotation Yrotation
                JOINT RightForeArm
                {
                  OFFSET 28.7848 1.52588e-005 0
                  CHANNELS 3 Zrotation Xrotation Yrotation
                  JOINT RightHand
                  {
                    OFFSET 26.5688 1.52588e-005 0
                    CHANNELS 3 Zrotation Xrotation Yrotation
                    End Site
                    {
                      OFFSET 0 0 0
                    }
                  }
                }
              }
            }
            JOINT LeftShoulder
            {
              OFFSET 2.38034 -1.29275 -3.7523
              CHANNELS 3 Zrotation Xrotation Yrotation
              JOINT LeftArm
              {
                OFFSET 16.3182 6.10352e-005 0
                CHANNELS 3 Zrotation Xrotation Yrotation
                JOINT LeftForeArm
                {
                  OFFSET 27.0901 0 0
                  CHANNELS 3 Zrotation Xrotation Yrotation
                  JOINT LeftHand
                  {
                    OFFSET 24.5451 1.52588e-005 0
                    CHANNELS 3 Zrotation Xrotation Yrotation
                    End Site
                    {
                      OFFSET 0 0 0
                    }
                  }
                }
              }
            }
            JOINT Neck
            {
              OFFSET 5.0226 -0.0266342 0
              CHANNELS 3 Zrotation Xrotation Yrotation
              JOINT Head
              {
                OFFSET 6.69363 2.86102e-005 0
                CHANNELS 3 Zrotation Xrotation Yrotation
                End Site
                {
                  OFFSET 0 0 0
                }
              }
            }
          }
        }
      }
    }
  }
}
MOTION
Frames:	6
Frame Time:	0.0416667
-151.869 98.7028 -144.724 -97.9071 40.0457 -83.9316 -171.728 2.23083 99.4946 -17.0038 17.718 -0.519073 67.0775 4.05175 -0.767979 26.9839 -0.392688 0.87601 170.172 0.253233 86.115 -19.1622 -13.772 -1.70869 69.3348 -4.59659 -1.13667 21.5176 -1.72969 4.96421 0.326617 7.9327 -90.3505 11.0096 0.487876 -0.744053 -0.661468 0.454643 -0.764818 -23.1963 0.688928 -0.563036 -3.18363 0.688949 -0.563043 90.6147 -30.5966 -105.323 35.1155 -7.38748 -6.19777 -4.68975 -25.4527 -27.9009 -29.8561 -0.643957 -8.07992 -89.0257 -56.0399 81.3177 -25.8219 15.9386 1.94158 3.77049 -0.932646 -9.44951 -1.04263 -0.0995721 -5.14959 11.1844 -1.16153 -0.0236433 -2.84781 -1.14039 1.87148 
-153.142 98.7827 -144.221 -98.4882 40.3183 -83.837 -172.007 0.609998 98.5654 -16.0949 16.6962 -0.667105 67.8396 4.38444 -0.910906 26.6668 -0.536343 1.13404 169.34 -0.735838 84.7559 -18.2621 -15.0472 -1.7925 68.9248 -4.5154 -1.11911 22.2857 -1.67192 4.76428 0.32158 7.95782 -90.2768 10.9593 0.512153 -0.599254 -0.71169 0.485274 -0.621222 -23.247 0.668554 -0.417635 -3.23439 0.668557 -0.417636 90.036 -30.8216 -106.378 36.0565 -8.95302 -5.32887 -0.693366 -20.8722 -21.8688 -25.185 -0.246811 -9.08097 -88.8997 -55.7535 81.4443 -22.8493 16.1872 -2.82636 4.71452 1.91538 -12.1844 3.37272 -0.142246 -5.41313 10.5467 -1.30791 0.0625306 -3.10705 -1.30487 1.49998 
-154.039 98.815 -143.88 -98.7634 40.5989 -83.6969 -172.206 0.0150353 98.0874 -16.2648 15.9718 -0.755222 68.3662 4.56702 -1.182 25.3631 0.0985776 0.453083 169.077 -1.48955 84.1474 -17.3784 -15.5079 -2.06763 68.5974 -4.46688 -0.994657 22.502 -1.63317 4.66051 0.310537 7.98549 -90.2541 10.9039 0.500628 -0.552638 -0.767062 0.47583 -0.574147 -23.3025 0.643576 -0.37663 -3.28984 0.643573 -0.37663 89.4044 -31.3179 -107.421 36.7078 -9.13371 -4.45059 1.87 -26.7814 -16.3303 -22.1582 -0.470512 -10.165 -88.8292 -56.0188 81.5898 -19.3895 16.9148 -7.80143 5.31668 1.78462 -15.9942 3.78747 -0.196037 -6.3189 10.6321 -1.17138 0.660827 -3.55524 -1.31084 1.08692 
-154.707 98.8219 -143.607 -98.8561 40.7751 -83.6654 -172.364 -0.272464 97.6386 -16.5037 15.6993 -0.829003 68.7232 4.72521 -0.801718 25.3123 0.208365 0.311599 168.976 -1.80092 83.7428 -17.0295 -15.6906 -2.31766 68.3683 -4.40986 -0.929407 22.868 -1.59397 4.53772 0.292235 7.99479 -90.1997 10.8852 0.489488 -0.443185 -0.785729 0.46953 -0.464308 -23.3213 0.600054 -0.27558 -3.30869 0.600063 -0.275588 89.1428 -31.5471 -107.838 38.1632 -9.40528 -3.26098 3.66936 -28.2165 -13.4084 -19.8072 -0.760046 -9.167 -88.6814 -55.4022 81.6904 -17.9594 15.091 -12.1136 6.86819 2.04905 -19.2946 4.82063 -0.26589 -7.15205 10.4989 -1.10349 0.641487 -3.2756 -1.23183 0.65583 
-155.248 98.8221 -143.342 -98.9973 41.0873 -83.3559 -172.426 -0.392486 97.4799 -16.9476 15.3501 -0.897605 69.1211 4.87712 -0.525411 25.2867 0.304819 0.183117 168.763 -2.20543 83.4828 -16.3795 -16.2544 -2.33049 68.0579 -4.39012 -0.857203 23.1571 -1.54911 4.41043 0.248623 7.96508 -90.1865 10.9443 0.408776 -0.409758 -0.726651 0.390325 -0.427353 -23.2621 0.513023 -0.267956 -3.24941 0.513003 -0.26797 89.3748 -31.9705 -107.229 38.9405 -9.83972 -1.78025 5.10592 -27.947 -12.5724 -19.9892 -0.747046 -9.13428 -88.6272 -55.4256 81.7713 -16.9983 12.6862 -14.238 9.33786 3.60426 -24.1242 5.83359 -0.26823 -6.84674 9.69612 -0.618662 0.620452 -2.68958 -0.747444 0.845815 
-155.866 98.7949 -143.183 -99.0147 41.6973 -83.4882 -172.771 -0.714976 96.8551 -17.2166 14.1086 -0.900779 69.5792 5.02716 -0.749573 24.798 0.256351 0.333343 168.711 -2.10949 82.9945 -16.5354 -16.5525 -2.64447 68.1687 -4.4709 -0.459497 23.4134 -1.50501 4.28752 0.192154 7.96458 -90.168 10.9452 0.304678 -0.36318 -0.725774 0.288431 -0.376242 -23.261 0.399737 -0.254823 -3.24835 0.399764 -0.254814 89.3647 -32.2971 -107.126 39.2843 -9.38124 -0.567181 3.70528 -27.8825 -13.9849 -20.4592 -0.791704 -8.69021 -88.7261 -55.0583 81.5671 -17.2946 11.1126 -15.5247 11.0382 4.09834 -27.992 4.96095 -0.283042 -7.37018 10.0643 -0.354648 1.04444 -3.52018 -0.592115 0.692661 
